<svg xmlns="http://www.w3.org/2000/svg" width="1440" height="460" viewBox="0 0 1440 460" role="img" aria-labelledby="title desc">
  <title id="title">EQ-Proof synthetic monthly-close case</title>
  <desc id="desc">One authentic Control Room view beside a reconstruction rail showing a reported EAC of 407 million dollars, a defensible EAC of 418 million dollars, and an 11 million dollar contradiction.</desc>
  <defs>
    <linearGradient id="bg" x1="0" y1="0" x2="1" y2="1"><stop stop-color="#07100f"/><stop offset="1" stop-color="#0d1d1a"/></linearGradient>
    <linearGradient id="danger" x1="0" y1="0" x2="1" y2="0"><stop stop-color="#431f22"/><stop offset="1" stop-color="#132522"/></linearGradient>
    <linearGradient id="mint" x1="0" y1="0" x2="1" y2="1"><stop stop-color="#163d33"/><stop offset="1" stop-color="#10231f"/></linearGradient>
    <clipPath id="productCrop"><rect x="28" y="58" width="820" height="368" rx="18"/></clipPath>
    <style>
      .ui{font-family:Inter,Segoe UI,Arial,sans-serif}.muted{fill:#8fa9a1}.bright{fill:#effaf6}.green{fill:#65f5c6}.red{fill:#ff8188}.amber{fill:#ffcc66}.label{font-size:15px;font-weight:700;letter-spacing:2px}.small{font-size:15px}.value{font-size:43px;font-weight:800;letter-spacing:-2px}.title{font-size:32px;font-weight:800}.hair{stroke:#29413b;stroke-width:1}.card{fill:#10211e;stroke:#29413b}.pill{fill:#132a25;stroke:#355149}
    </style>
    <symbol id="controlRoom" viewBox="0 0 1600 980">
      <rect width="1600" height="980" fill="url(#bg)"/>
      <circle cx="130" cy="80" r="260" fill="#23896c" opacity=".09"/><circle cx="1450" cy="880" r="300" fill="#5c6eff" opacity=".06"/>
      <g class="ui">
        <rect x="50" y="42" width="1500" height="896" rx="24" fill="#0b1715" stroke="#29413b"/>
        <rect x="50" y="42" width="1500" height="68" rx="24" fill="#0e1d1a"/><line x1="50" y1="110" x2="1550" y2="110" class="hair"/>
        <rect x="76" y="59" width="38" height="38" rx="11" fill="#17352d" stroke="#65f5c6" opacity=".9"/><text x="95" y="84" text-anchor="middle" class="green" font-size="17" font-weight="900">EQ</text>
        <text x="130" y="78" class="bright" font-size="20" font-weight="800">EQ-Proof</text><text x="130" y="96" class="muted" font-size="11" letter-spacing="2">CONTROL ROOM</text>
        <rect x="1268" y="61" width="250" height="34" rx="17" class="pill"/><circle cx="1290" cy="78" r="5" fill="#65f5c6"/><text x="1305" y="83" class="muted" font-size="13">LOCAL-FIRST · NO TELEMETRY</text>
        <text x="84" y="152" class="green label">DECISION COCKPIT</text><text x="84" y="190" class="bright title">Hyperscale monthly close</text>
        <rect x="1195" y="143" width="132" height="31" rx="9" class="pill"/><text x="1261" y="164" text-anchor="middle" class="muted small">schedule.xer</text>
        <rect x="1337" y="143" width="104" height="31" rx="9" class="pill"/><text x="1389" y="164" text-anchor="middle" class="muted small">cost.csv</text>
        <rect x="1451" y="143" width="67" height="31" rx="9" class="pill"/><text x="1484" y="164" text-anchor="middle" class="muted small">rules</text>
        <rect x="84" y="214" width="1432" height="164" rx="18" fill="url(#danger)" stroke="#6b3438"/>
        <text x="116" y="250" class="red label">EXECUTIVE CLOSE GATE</text><text x="116" y="308" class="red" font-size="50" font-weight="900" letter-spacing="-2">CLOSE BLOCKED</text>
        <text x="116" y="343" class="bright" font-size="18">Reported EAC is $11M below AC + ETC; the configured risk-adjusted position is $76M above reported EAC.</text>
        <circle cx="1085" cy="296" r="54" fill="#10211e" stroke="#65f5c6" stroke-width="8" stroke-dasharray="126 214" transform="rotate(-90 1085 296)"/><text x="1085" y="295" text-anchor="middle" class="bright" font-size="28" font-weight="800">37</text><text x="1085" y="316" text-anchor="middle" class="muted" font-size="11">assurance</text>
        <line x1="1180" y1="251" x2="1180" y2="340" class="hair"/><text x="1210" y="286" class="bright" font-size="31" font-weight="800">3</text><text x="1210" y="310" class="muted small">blockers</text>
        <line x1="1300" y1="251" x2="1300" y2="340" class="hair"/><text x="1330" y="286" class="bright" font-size="31" font-weight="800">5</text><text x="1330" y="310" class="muted small">exceptions</text>
        <line x1="1420" y1="251" x2="1420" y2="340" class="hair"/><text x="1450" y="286" class="bright" font-size="31" font-weight="800">6</text><text x="1450" y="310" class="muted small">records</text>
        <g>
          <rect x="84" y="398" width="346" height="130" rx="16" class="card"/><text x="108" y="429" class="muted label">REPORTED EAC</text><text x="108" y="484" class="bright value">$407M</text><text x="108" y="510" class="muted small">What the submitted close claims</text>
          <rect x="444" y="398" width="346" height="130" rx="16" class="card"/><text x="468" y="429" class="muted label">DEFENSIBLE EAC</text><text x="468" y="484" class="bright value">$418M</text><text x="468" y="510" class="muted small">Actual cost + remaining forecast</text>
          <rect x="804" y="398" width="346" height="130" rx="16" class="card"/><text x="828" y="429" class="amber label">DETERMINISTIC GAP</text><text x="828" y="484" class="amber value">$11M</text><text x="828" y="510" class="muted small">Governed AC + ETC minus reported EAC</text>
          <rect x="1164" y="398" width="352" height="130" rx="16" fill="url(#mint)" stroke="#367360"/><text x="1188" y="429" class="green label">RISK-ADJUSTED POSITION</text><text x="1188" y="484" class="green value">$483M</text><text x="1188" y="510" class="muted small">Declared change + configured risk uplift</text>
        </g>
        <rect x="84" y="548" width="1432" height="48" rx="12" fill="#0d1a18" stroke="#29413b"/>
        <rect x="90" y="554" width="340" height="36" rx="9" fill="#17342c"/><text x="260" y="578" text-anchor="middle" class="bright" font-size="15" font-weight="700">Explain the surprise</text>
        <text x="594" y="578" text-anchor="middle" class="muted" font-size="15">Evidence graph</text><text x="927" y="578" text-anchor="middle" class="muted" font-size="15">Exception command centre</text><text x="1325" y="578" text-anchor="middle" class="muted" font-size="15">Equation workbench</text>
      </g>
    </symbol>
  </defs>
  <rect x="1" y="1" width="1438" height="458" rx="24" fill="#07100f" stroke="#29413b" stroke-width="2"/>
  <text x="32" y="34" class="ui green label">SYNTHETIC MONTHLY-CLOSE CASE / ONE CONTROL ROOM VIEW</text>
  <g clip-path="url(#productCrop)">
    <svg x="28" y="58" width="820" height="368" viewBox="50 100 1100 560" preserveAspectRatio="xMidYMid slice" overflow="hidden"><use href="#controlRoom" width="1600" height="980"/></svg>
  </g>
  <rect x="28.5" y="58.5" width="819" height="367" rx="18" fill="none" stroke="#29413b"/>
  <rect x="876" y="58" width="532" height="368" rx="18" fill="#0b1715" stroke="#29413b"/>
  <text x="908" y="94" class="ui muted label">RECONSTRUCTION</text>
  <line x1="938" y1="132" x2="938" y2="333" stroke="#355149" stroke-width="3"/>
  <circle cx="938" cy="145" r="9" fill="#effaf6"/><circle cx="938" cy="235" r="9" fill="#65f5c6"/><circle cx="938" cy="325" r="9" fill="#ffcc66"/>
  <g class="ui">
    <text x="970" y="132" class="muted label">REPORTED</text><text x="970" y="169" class="bright" font-size="45" font-weight="900" letter-spacing="-2">$407M</text>
    <text x="970" y="222" class="muted label">DEFENSIBLE</text><text x="970" y="259" class="green" font-size="45" font-weight="900" letter-spacing="-2">$418M</text><text x="1190" y="253" class="muted" font-size="15">AC + ETC</text>
    <text x="970" y="312" class="amber label">CONTRADICTION</text><text x="970" y="349" class="amber" font-size="45" font-weight="900" letter-spacing="-2">$11M</text>
    <rect x="908" y="376" width="468" height="28" rx="14" fill="#132a25" stroke="#355149"/><text x="1142" y="395" text-anchor="middle" class="muted" font-size="13" font-weight="700" letter-spacing="1">SOURCE RECORDS → EXECUTABLE CONTROLS → CLOSE BLOCKED</text>
  </g>
</svg>
