<svg xmlns="http://www.w3.org/2000/svg" width="1200" height="630" viewBox="0 0 1200 630" role="img" aria-labelledby="title desc">
  <title id="title">Query Cartographer lineage and change-radius teaser</title>
  <desc id="desc">A restrained dependency map showing source tables, transformations, a proposed query edit, and the downstream paths affected by that change.</desc>
  <defs>
    <linearGradient id="bg" x1="0" y1="0" x2="1" y2="1">
      <stop offset="0" stop-color="#08111f"/>
      <stop offset="1" stop-color="#111827"/>
    </linearGradient>
    <pattern id="grid" width="36" height="36" patternUnits="userSpaceOnUse">
      <path d="M36 0H0V36" fill="none" stroke="#94a3b8" stroke-opacity="0.07"/>
    </pattern>
    <filter id="shadow" x="-30%" y="-30%" width="160%" height="160%">
      <feDropShadow dx="0" dy="8" stdDeviation="12" flood-color="#000" flood-opacity="0.35"/>
    </filter>
    <filter id="glow" x="-80%" y="-80%" width="260%" height="260%">
      <feGaussianBlur stdDeviation="5" result="blur"/>
      <feMerge><feMergeNode in="blur"/><feMergeNode in="SourceGraphic"/></feMerge>
    </filter>
  </defs>

  <rect width="1200" height="630" rx="24" fill="url(#bg)"/>
  <rect width="1200" height="630" rx="24" fill="url(#grid)"/>

  <text x="58" y="70" fill="#f8fafc" font-family="Inter,Segoe UI,Arial,sans-serif" font-size="30" font-weight="750">QUERY CARTOGRAPHER</text>
  <text x="58" y="103" fill="#94a3b8" font-family="Inter,Segoe UI,Arial,sans-serif" font-size="17">Lineage before modification</text>
  <rect x="956" y="50" width="184" height="34" rx="17" fill="#142033" stroke="#334155"/>
  <text x="1048" y="72" text-anchor="middle" fill="#cbd5e1" font-family="Inter,Segoe UI,Arial,sans-serif" font-size="12" font-weight="700" letter-spacing="1.4">PRIVATE DEVELOPMENT</text>

  <g stroke="#475569" stroke-width="2" fill="none" opacity="0.72">
    <path d="M194 224 C276 224 292 196 370 196"/>
    <path d="M194 314 C276 314 292 278 370 278"/>
    <path d="M194 404 C276 404 292 360 370 360"/>
    <path d="M528 196 C610 196 626 250 706 250"/>
    <path d="M528 278 C610 278 626 250 706 250"/>
    <path d="M528 360 C610 360 626 332 706 332"/>
    <path d="M864 250 C936 250 948 218 1014 218"/>
    <path d="M864 250 C936 250 948 308 1014 308"/>
    <path d="M864 332 C936 332 948 398 1014 398"/>
  </g>

  <g stroke="#38bdf8" stroke-width="4" fill="none" filter="url(#glow)">
    <path d="M194 314 C276 314 292 278 370 278"/>
    <path d="M528 278 C610 278 626 250 706 250"/>
    <path d="M864 250 C936 250 948 218 1014 218"/>
    <path d="M864 250 C936 250 948 308 1014 308"/>
  </g>

  <g font-family="ui-monospace,SFMono-Regular,Consolas,monospace" font-size="14" filter="url(#shadow)">
    <g>
      <rect x="58" y="194" width="136" height="60" rx="12" fill="#111d2d" stroke="#334155"/>
      <text x="126" y="221" text-anchor="middle" fill="#94a3b8">SOURCE</text>
      <text x="126" y="241" text-anchor="middle" fill="#e2e8f0">ERP_COST</text>
    </g>
    <g>
      <rect x="58" y="284" width="136" height="60" rx="12" fill="#10243a" stroke="#38bdf8" stroke-width="2"/>
      <text x="126" y="311" text-anchor="middle" fill="#7dd3fc">SOURCE</text>
      <text x="126" y="331" text-anchor="middle" fill="#f0f9ff">P6_STATUS</text>
    </g>
    <g>
      <rect x="58" y="374" width="136" height="60" rx="12" fill="#111d2d" stroke="#334155"/>
      <text x="126" y="401" text-anchor="middle" fill="#94a3b8">SOURCE</text>
      <text x="126" y="421" text-anchor="middle" fill="#e2e8f0">RISK_LOG</text>
    </g>

    <g>
      <rect x="370" y="166" width="158" height="60" rx="12" fill="#111d2d" stroke="#334155"/>
      <text x="449" y="193" text-anchor="middle" fill="#94a3b8">TRANSFORM</text>
      <text x="449" y="213" text-anchor="middle" fill="#e2e8f0">CTE_07</text>
    </g>
    <g>
      <rect x="370" y="248" width="158" height="60" rx="12" fill="#132a3f" stroke="#38bdf8" stroke-width="2.5"/>
      <text x="449" y="275" text-anchor="middle" fill="#7dd3fc">PROPOSED EDIT</text>
      <text x="449" y="295" text-anchor="middle" fill="#f0f9ff">JOIN_12</text>
    </g>
    <g>
      <rect x="370" y="330" width="158" height="60" rx="12" fill="#111d2d" stroke="#334155"/>
      <text x="449" y="357" text-anchor="middle" fill="#94a3b8">TRANSFORM</text>
      <text x="449" y="377" text-anchor="middle" fill="#e2e8f0">AGG_04</text>
    </g>

    <g>
      <rect x="706" y="220" width="158" height="60" rx="12" fill="#142033" stroke="#475569"/>
      <text x="785" y="247" text-anchor="middle" fill="#a5b4fc">MODEL</text>
      <text x="785" y="267" text-anchor="middle" fill="#eef2ff">FORECAST</text>
    </g>
    <g>
      <rect x="706" y="302" width="158" height="60" rx="12" fill="#111d2d" stroke="#334155"/>
      <text x="785" y="329" text-anchor="middle" fill="#94a3b8">MODEL</text>
      <text x="785" y="349" text-anchor="middle" fill="#e2e8f0">RISK_VIEW</text>
    </g>

    <g>
      <rect x="1014" y="188" width="128" height="60" rx="12" fill="#18243a" stroke="#60a5fa"/>
      <text x="1078" y="215" text-anchor="middle" fill="#bfdbfe">OUTPUT</text>
      <text x="1078" y="235" text-anchor="middle" fill="#f8fafc">EAC</text>
    </g>
    <g>
      <rect x="1014" y="278" width="128" height="60" rx="12" fill="#18243a" stroke="#60a5fa"/>
      <text x="1078" y="305" text-anchor="middle" fill="#bfdbfe">OUTPUT</text>
      <text x="1078" y="325" text-anchor="middle" fill="#f8fafc">BOARD_PACK</text>
    </g>
    <g>
      <rect x="1014" y="368" width="128" height="60" rx="12" fill="#111d2d" stroke="#334155"/>
      <text x="1078" y="395" text-anchor="middle" fill="#94a3b8">OUTPUT</text>
      <text x="1078" y="415" text-anchor="middle" fill="#e2e8f0">RISK_VIEW</text>
    </g>
  </g>

  <g transform="translate(58 500)">
    <rect width="1084" height="74" rx="16" fill="#0e1a2a" stroke="#26364d"/>
    <text x="26" y="30" fill="#7dd3fc" font-family="Inter,Segoe UI,Arial,sans-serif" font-size="13" font-weight="700" letter-spacing="1.2">CHANGE RADIUS</text>
    <text x="26" y="53" fill="#cbd5e1" font-family="Inter,Segoe UI,Arial,sans-serif" font-size="16">Trace the edit through structure, lineage, and downstream surfaces before touching the model.</text>
  </g>
</svg>