<svg xmlns="http://www.w3.org/2000/svg" width="1200" height="630" viewBox="0 0 1200 630" role="img"><defs><linearGradient id="bg" x1="0" y1="0" x2="1" y2="1"><stop offset="0%" stop-color="#0a1322"/><stop offset="100%" stop-color="#111827"/></linearGradient><filter id="shadow" x="-20%" y="-20%" width="140%" height="140%"><feDropShadow dx="0" dy="10" stdDeviation="18" flood-color="#000000" flood-opacity="0.35"/></filter></defs><rect width="1200" height="630" fill="url(#bg)"/><text x="54" y="66" font-family="Inter,Segoe UI,Arial,sans-serif" font-size="28" font-weight="800" fill="#f8fafc">REAL ESTATE DECISION DESK</text><text x="54" y="100" font-family="Inter,Segoe UI,Arial,sans-serif" font-size="18" fill="#94a3b8">Traceable property comparison across fit, cost, risk and uncertainty</text><rect x="54" y="138" width="280" height="420" rx="22" fill="#101b2c" stroke="#25344d" filter="url(#shadow)"/><text x="82" y="178" font-family="Inter,Segoe UI,Arial,sans-serif" font-size="14" font-weight="700" fill="#60a5fa">SHORTLIST</text><rect x="82" y="212" width="224" height="74" rx="14" fill="#162237" stroke="#2b3d59"/><text x="100" y="237" font-family="Inter,Segoe UI,Arial,sans-serif" font-size="16" font-weight="700" fill="#f8fafc">Glenora</text><text x="100" y="262" font-family="Inter,Segoe UI,Arial,sans-serif" font-size="13" font-weight="600" fill="#cbd5e1">$524k</text><circle cx="274" cy="249" r="22" fill="#22c55e"/><text x="274" y="255" font-family="Inter,Segoe UI,Arial,sans-serif" font-size="15" font-weight="800" fill="#08111f" text-anchor="middle">84</text><rect x="82" y="306" width="224" height="74" rx="14" fill="#162237" stroke="#2b3d59"/><text x="100" y="331" font-family="Inter,Segoe UI,Arial,sans-serif" font-size="16" font-weight="700" fill="#f8fafc">Ritchie</text><text x="100" y="356" font-family="Inter,Segoe UI,Arial,sans-serif" font-size="13" font-weight="600" fill="#cbd5e1">$498k</text><circle cx="274" cy="343" r="22" fill="#f59e0b"/><text x="274" y="349" font-family="Inter,Segoe UI,Arial,sans-serif" font-size="15" font-weight="800" fill="#08111f" text-anchor="middle">79</text><rect x="82" y="400" width="224" height="74" rx="14" fill="#162237" stroke="#2b3d59"/><text x="100" y="425" font-family="Inter,Segoe UI,Arial,sans-serif" font-size="16" font-weight="700" fill="#f8fafc">Overlanders</text><text x="100" y="450" font-family="Inter,Segoe UI,Arial,sans-serif" font-size="13" font-weight="600" fill="#cbd5e1">$462k</text><circle cx="274" cy="437" r="22" fill="#94a3b8"/><text x="274" y="443" font-family="Inter,Segoe UI,Arial,sans-serif" font-size="15" font-weight="800" fill="#08111f" text-anchor="middle">71</text><text x="82" y="515" font-family="Inter,Segoe UI,Arial,sans-serif" font-size="12" font-weight="700" fill="#93c5fd">Mandatory gates applied</text><rect x="364" y="138" width="460" height="420" rx="22" fill="#101b2c" stroke="#25344d" filter="url(#shadow)"/><text x="392" y="178" font-family="Inter,Segoe UI,Arial,sans-serif" font-size="14" font-weight="700" fill="#34d399">DECISION SCORECARD</text><text x="392" y="220" font-family="Inter,Segoe UI,Arial,sans-serif" font-size="14" font-weight="600" fill="#e2e8f0">Location fit</text><rect x="520" y="207" width="260" height="14" rx="7" fill="#1b2a41"/><rect x="520" y="207" width="234" height="14" rx="7" fill="#22c55e"/><text x="790" y="220" font-family="Inter,Segoe UI,Arial,sans-serif" font-size="13" font-weight="700" fill="#f8fafc" text-anchor="end">90</text><text x="392" y="274" font-family="Inter,Segoe UI,Arial,sans-serif" font-size="14" font-weight="600" fill="#e2e8f0">Layout</text><rect x="520" y="261" width="260" height="14" rx="7" fill="#1b2a41"/><rect x="520" y="261" width="213" height="14" rx="7" fill="#22c55e"/><text x="790" y="274" font-family="Inter,Segoe UI,Arial,sans-serif" font-size="13" font-weight="700" fill="#f8fafc" text-anchor="end">82</text><text x="392" y="328" font-family="Inter,Segoe UI,Arial,sans-serif" font-size="14" font-weight="600" fill="#e2e8f0">Condition</text><rect x="520" y="315" width="260" height="14" rx="7" fill="#1b2a41"/><rect x="520" y="315" width="161" height="14" rx="7" fill="#f59e0b"/><text x="790" y="328" font-family="Inter,Segoe UI,Arial,sans-serif" font-size="13" font-weight="700" fill="#f8fafc" text-anchor="end">62</text><text x="392" y="382" font-family="Inter,Segoe UI,Arial,sans-serif" font-size="14" font-weight="600" fill="#e2e8f0">Near-term cost</text><rect x="520" y="369" width="260" height="14" rx="7" fill="#1b2a41"/><rect x="520" y="369" width="140" height="14" rx="7" fill="#f59e0b"/><text x="790" y="382" font-family="Inter,Segoe UI,Arial,sans-serif" font-size="13" font-weight="700" fill="#f8fafc" text-anchor="end">54</text><text x="392" y="436" font-family="Inter,Segoe UI,Arial,sans-serif" font-size="14" font-weight="600" fill="#e2e8f0">Documentation</text><rect x="520" y="423" width="260" height="14" rx="7" fill="#1b2a41"/><rect x="520" y="423" width="203" height="14" rx="7" fill="#38bdf8"/><text x="790" y="436" font-family="Inter,Segoe UI,Arial,sans-serif" font-size="13" font-weight="700" fill="#f8fafc" text-anchor="end">78</text><rect x="392" y="494" width="388" height="36" rx="10" fill="#14293c" stroke="#1d4ed8"/><text x="410" y="517" font-family="Inter,Segoe UI,Arial,sans-serif" font-size="12" font-weight="700" fill="#bfdbfe">Decision-adjusted entry cost</text><text x="760" y="517" font-family="Inter,Segoe UI,Arial,sans-serif" font-size="15" font-weight="800" fill="#f8fafc" text-anchor="end">$568,000</text><rect x="854" y="138" width="292" height="420" rx="22" fill="#101b2c" stroke="#25344d" filter="url(#shadow)"/><text x="882" y="178" font-family="Inter,Segoe UI,Arial,sans-serif" font-size="14" font-weight="700" fill="#f59e0b">RISK &amp; SENSITIVITY</text><rect x="882" y="210" width="236" height="150" rx="12" fill="#142034" stroke="#2c405d"/><line x1="1000" y1="222" x2="1000" y2="348" stroke="#475569"/><line x1="894" y1="285" x2="1106" y2="285" stroke="#475569"/><circle cx="1068" cy="252" r="8" fill="#ef4444"/><circle cx="1028" cy="320" r="7" fill="#f59e0b"/><circle cx="940" cy="334" r="6" fill="#22c55e"/><text x="892" y="378" font-family="Inter,Segoe UI,Arial,sans-serif" font-size="12" font-weight="600" fill="#cbd5e1">Repair estimate +25%</text><rect x="892" y="392" width="216" height="14" rx="7" fill="#1b2a41"/><rect x="892" y="392" width="150" height="14" rx="7" fill="#ef4444"/><text x="892" y="440" font-family="Inter,Segoe UI,Arial,sans-serif" font-size="12" font-weight="700" fill="#86efac">Ranking remains stable</text><text x="892" y="464" font-family="Inter,Segoe UI,Arial,sans-serif" font-size="12" font-weight="700" fill="#fbbf24">Confidence: medium</text><rect x="892" y="500" width="216" height="30" rx="10" fill="#1e3a5f" stroke="#2563eb"/><text x="1000" y="520" font-family="Inter,Segoe UI,Arial,sans-serif" font-size="11" font-weight="800" fill="#dbeafe" text-anchor="middle">ADVANCE TO VIEWING</text><text x="54" y="600" font-family="Inter,Segoe UI,Arial,sans-serif" font-size="15" font-weight="700" fill="#64748b">FACTS → GATES → SCORE → COST → RISK → DECISION</text></svg>