<svg xmlns="http://www.w3.org/2000/svg" width="430" height="250" viewBox="0 0 430 250" role="img" aria-labelledby="title desc">
  <title id="title">TECHNICAL REVIEWER route</title>
  <desc id="desc">Audience navigation card for technical reviewer visitors.</desc>
  <defs>
    <linearGradient id="bg" x1="0" y1="0" x2="1" y2="1"><stop offset="0" stop-color="#07111f"/><stop offset="1" stop-color="#0a1628"/></linearGradient>
    <pattern id="grid" width="32" height="32" patternUnits="userSpaceOnUse"><path d="M32 0H0V32" fill="none" stroke="#29405c" stroke-opacity="0.28" stroke-width="1"/></pattern>
    <filter id="shadow" x="-20%" y="-20%" width="140%" height="140%"><feDropShadow dx="0" dy="10" stdDeviation="16" flood-color="#000000" flood-opacity="0.20"/></filter>
    <style>
      .sans { font-family: Inter, ui-sans-serif, system-ui, -apple-system, BlinkMacSystemFont, "Segoe UI", Arial, sans-serif; }
      .mono { font-family: "SFMono-Regular", Consolas, "Liberation Mono", Menlo, monospace; }
      .title { fill: #f8fafc; font-weight: 800; letter-spacing: -1px; }
      .body { fill: #a9b7c9; }
      .label { font-size: 16px; font-weight: 800; letter-spacing: 2px; }
      .panel { fill: #0d1b2d; stroke: #29405c; stroke-width: 1.3; }
    </style>
  </defs>
  <rect width="430" height="250" rx="28" fill="url(#bg)"/>
  <rect width="430" height="250" rx="28" fill="url(#grid)" opacity="0.36"/>
  <rect x="16" y="16" width="398" height="218" rx="22" class="panel" filter="url(#shadow)"/>
  <rect x="16" y="16" width="398" height="5" rx="2.5" fill="#34d399"/>
  <text x="38" y="53" font-size="14" class="mono" font-weight="850" fill="#34d399">03</text>
  <text x="78" y="53" font-size="14" class="label mono" font-weight="850" fill="#34d399">TECHNICAL REVIEWER</text>
  <g transform="translate(317 34)" fill="none" stroke="#34d399" stroke-width="3" stroke-linecap="round" stroke-linejoin="round" opacity="0.92"><path d="M14 23h48v38H14zM14 34h48M25 47l-5 5 5 5M34 57h13"/></g>
  <text x="38" y="95" font-size="25" class="title sans" font-weight="850">Inspect the proof</text>
  <circle cx="44" cy="121" r="4" fill="#34d399"/><text x="58" y="126" font-size="15" class="body sans" font-weight="600">Architecture + boundaries</text>
  <circle cx="44" cy="147" r="4" fill="#34d399"/><text x="58" y="152" font-size="15" class="body sans" font-weight="600">Tests + CI + contracts</text>
  <circle cx="44" cy="173" r="4" fill="#34d399"/><text x="58" y="178" font-size="15" class="body sans" font-weight="600">Runnable evidence</text>
  <text x="38" y="217" font-size="12" class="mono" font-weight="850" fill="#34d399">OPEN TECHNICAL INDEX</text>
  <rect x="1" y="1" width="428" height="248" rx="27" fill="none" stroke="#29405c" stroke-opacity="0.75"/>
</svg>