<svg xmlns="http://www.w3.org/2000/svg" width="680" height="470" viewBox="0 0 680 470" role="img" aria-labelledby="title desc"><title id="title">SOC_Replay project card</title><desc id="desc">Five-stage deterministic telemetry pipeline, execution identity chain, and quality metrics.</desc><defs><linearGradient id="bg" x1="0" y1="0" x2="1" y2="1"><stop offset="0" stop-color="#07111f"/><stop offset="1" stop-color="#0a1628"/></linearGradient><pattern id="grid" width="32" height="32" patternUnits="userSpaceOnUse"><path d="M32 0H0V32" fill="none" stroke="#29405c" stroke-opacity=".28"/></pattern><filter id="shadow" x="-20%" y="-20%" width="140%" height="140%"><feDropShadow dx="0" dy="10" stdDeviation="16" flood-color="#000" flood-opacity=".2"/></filter><marker id="arrow" markerWidth="10" markerHeight="10" refX="8" refY="3" orient="auto"><path d="M0 0v6l9-3z" fill="#38bdf8"/></marker><style>.sans{font-family:Inter,system-ui,-apple-system,"Segoe UI",Arial,sans-serif}.mono{font-family:Consolas,"Liberation Mono",Menlo,monospace}.title{fill:#f8fafc;font-weight:800;letter-spacing:-1px}.body{fill:#a9b7c9}.muted{fill:#6f8197}.label{font-size:16px;font-weight:800;letter-spacing:2px}.panel{fill:#0d1b2d;stroke:#29405c;stroke-width:1.3}.panel2{fill:#101f34;stroke:#29405c;stroke-width:1.2}.pulse{transform-box:fill-box;transform-origin:center;animation:pulse 2.8s ease-in-out infinite}@keyframes pulse{0%,100%{opacity:.35;transform:scale(.88)}50%{opacity:1;transform:scale(1.12)}}@media(prefers-reduced-motion:reduce){.pulse{animation:none}}</style></defs><rect width="680" height="470" rx="28" fill="url(#bg)"/><rect width="680" height="470" rx="28" fill="url(#grid)" opacity=".36"/><rect x="18" y="18" width="644" height="434" rx="24" class="panel" filter="url(#shadow)"/><text x="44" y="58" font-size="13" class="label mono" font-weight="850" fill="#34d399">FLAGSHIP 02 / EVIDENCE ENGINEERING</text><text x="44" y="101" font-size="29" class="title sans" font-weight="900">SOC_REPLAY</text><text x="44" y="132" font-size="16" class="body sans" font-weight="650">Contract-complete defensive telemetry engine</text><rect x="500" y="42" width="104" height="34" rx="17" fill="#34d399" fill-opacity=".12" stroke="#34d399" stroke-opacity=".55"/><text x="552" y="64" font-size="13" class="mono" text-anchor="middle" font-weight="700" fill="#34d399">v3.1</text><g class="mono" text-anchor="middle"><rect x="43" y="178" width="110" height="84" rx="14" class="panel2"/><text x="98" y="209" font-size="13" class="title" font-weight="900" fill="#38bdf8">LOAD</text><text x="98" y="234" font-size="9" class="muted" font-weight="700">freeze + validate</text><path d="M153 220h16" stroke="#38bdf8" stroke-width="2.4" marker-end="url(#arrow)"/><rect x="169" y="178" width="110" height="84" rx="14" class="panel2"/><text x="224" y="209" font-size="13" class="title" font-weight="900" fill="#38bdf8">COMPILE</text><text x="224" y="234" font-size="9" class="muted" font-weight="700">plans + fingerprints</text><path d="M279 220h16" stroke="#38bdf8" stroke-width="2.4" marker-end="url(#arrow)"/><rect x="295" y="178" width="110" height="84" rx="14" class="panel2"/><text x="350" y="209" font-size="13" class="title" font-weight="900" fill="#34d399">INDEX</text><text x="350" y="234" font-size="9" class="muted" font-weight="700">safe intersections</text><path d="M405 220h16" stroke="#38bdf8" stroke-width="2.4" marker-end="url(#arrow)"/><rect x="421" y="178" width="110" height="84" rx="14" class="panel2"/><text x="476" y="209" font-size="13" class="title" font-weight="900" fill="#34d399">EVALUATE</text><text x="476" y="234" font-size="9" class="muted" font-weight="700">positive + zero traces</text><path d="M531 220h16" stroke="#38bdf8" stroke-width="2.4" marker-end="url(#arrow)"/><rect x="547" y="178" width="110" height="84" rx="14" class="panel2"/><text x="602" y="209" font-size="13" class="title" font-weight="900" fill="#fbbf24">VERIFY</text><text x="602" y="234" font-size="9" class="muted" font-weight="700">exact contracts</text></g><text x="44" y="302" font-size="11" class="muted mono" font-weight="800">EXECUTION IDENTITY</text><path d="M56 326h554" stroke="#29405c" stroke-width="5" stroke-linecap="round"/><g class="mono" text-anchor="middle" font-size="9" font-weight="750"><circle cx="58" cy="326" r="10" fill="#38bdf8" stroke="#0d1b2d" stroke-width="4" class="pulse"/><text x="58" y="355" class="muted">INPUT</text><circle cx="160" cy="326" r="10" fill="#38bdf8" stroke="#0d1b2d" stroke-width="4"/><text x="160" y="355" class="muted">PLAN</text><circle cx="262" cy="326" r="10" fill="#34d399" stroke="#0d1b2d" stroke-width="4"/><text x="262" y="355" class="muted">TRACE</text><circle cx="364" cy="326" r="10" fill="#38bdf8" stroke="#0d1b2d" stroke-width="4"/><text x="364" y="355" class="muted">DETECT</text><circle cx="466" cy="326" r="10" fill="#34d399" stroke="#0d1b2d" stroke-width="4"/><text x="466" y="355" class="muted">LEDGER</text><circle cx="608" cy="326" r="10" fill="#34d399" stroke="#0d1b2d" stroke-width="4"/><text x="608" y="355" class="muted">BUNDLE</text></g><g class="mono"><rect x="44" y="378" width="140" height="50" rx="12" class="panel2"/><text x="62" y="408" font-size="19" class="title" font-weight="900" fill="#34d399">42</text><text x="102" y="406" font-size="9" class="muted" font-weight="750">TESTS</text><rect x="192" y="378" width="140" height="50" rx="12" class="panel2"/><text x="210" y="408" font-size="19" class="title" font-weight="900" fill="#34d399">93%</text><text x="250" y="406" font-size="9" class="muted" font-weight="750">BRANCH COVERAGE</text><rect x="340" y="378" width="140" height="50" rx="12" class="panel2"/><text x="358" y="408" font-size="19" class="title" font-weight="900" fill="#34d399">5</text><text x="398" y="406" font-size="9" class="muted" font-weight="750">PIPELINE STAGES</text><rect x="488" y="378" width="140" height="50" rx="12" class="panel2"/><text x="506" y="408" font-size="19" class="title" font-weight="900" fill="#fbbf24">0</text><text x="546" y="406" font-size="9" class="muted" font-weight="750">LIVE RESPONSE</text></g><rect x="1" y="1" width="678" height="468" rx="27" fill="none" stroke="#29405c" stroke-opacity=".75"/></svg>